<?xml version="1.0" encoding="UTF-8" standalone="no"?>
<svg
   width="1254"
   height="1254"
   viewBox="0 0 2508 2508"
   version="1.1"
   id="svg12"
   sodipodi:docname="scallion_pencil_optimized.svg"
   inkscape:version="1.4.4 (dcaf3e7d9e, 2026-05-05)"
   xmlns:inkscape="http://www.inkscape.org/namespaces/inkscape"
   xmlns:sodipodi="http://sodipodi.sourceforge.net/DTD/sodipodi-0.dtd"
   xmlns="http://www.w3.org/2000/svg"
   xmlns:svg="http://www.w3.org/2000/svg">
  <defs
     id="defs12" />
  <sodipodi:namedview
     id="namedview12"
     pagecolor="#ffffff"
     bordercolor="#000000"
     borderopacity="0.25"
     inkscape:showpageshadow="2"
     inkscape:pageopacity="0.0"
     inkscape:pagecheckerboard="0"
     inkscape:deskcolor="#d1d1d1"
     inkscape:zoom="0.5136956"
     inkscape:cx="730.97764"
     inkscape:cy="610.2836"
     inkscape:window-width="2048"
     inkscape:window-height="1124"
     inkscape:window-x="0"
     inkscape:window-y="0"
     inkscape:window-maximized="1"
     inkscape:current-layer="g5" />
  <g
     transform="matrix(0.14070232,0,0,-0.14070232,-691.08107,3121.4621)"
     fill="#289b56"
     id="g4">
    <path
       d="m 15979,19765 c -169,-62 -482,-300 -766,-582 -231,-231 -417,-459 -767,-943 -294,-405 -786,-1190 -1026,-1635 -23,-44 -46,-84 -50,-90 -25,-35 -321,-620 -410,-810 -135,-288 -168,-359 -190,-415 -10,-25 -31,-74 -48,-110 -16,-36 -40,-87 -52,-115 -12,-27 -32,-72 -44,-100 -116,-261 -327,-909 -491,-1510 -20,-73 -74,-275 -116,-432 -11,-43 -28,-107 -38,-143 -25,-87 -72,-270 -120,-470 -97,-402 -123,-509 -136,-565 -18,-80 -57,-240 -95,-400 -18,-71 -40,-170 -51,-219 -9.845,-42.57 -25.457,-76.085 -6,-115 24.608,-46.035 58.256,-38.441 91,-9 21.603,19.419 61,128 171,383 165,383 215,498 304,692 54,120 136,295 180,388 45,94 112,233 149,310 37,77 175,356 308,620 647,1287 934,1850 1157,2265 61,113 133,248 160,300 51,96 323,589 479,865 223,396 427,739 639,1075 152,243 250,399 349,560 42,69 94,152 115,185 329,525 475,811 475,932 0,40 -23,88 -45,97 -26,10 -87,6 -126,-9 z"
       fill="#289b56"
       id="path2"
       sodipodi:nodetypes="ccccccccccccccccccccccscccccccscc" />
    <path
       d="m 9876,7016 c -51,-19 -104,-72 -116,-116 -5,-19 -24,-84 -41,-145 -59,-206 -119,-450 -119,-483 0,-74 64,-153 134,-166 70,-13 158,30 190,93 8,14 28,80 46,146 17,66 54,196 82,290 23.65,75.4385 52.406,144.4954 45,223 -13,122 -116,196 -221,158 z"
       fill="#289b56"
       id="path4"
       sodipodi:nodetypes="cccssccccc" />
  </g>
  <g
     transform="matrix(0.14070232,0,0,-0.14070232,-691.08107,3121.4621)"
     fill="#252829"
     id="g12">
    <g
       fill="#252829"
       id="g7" />
    <g
       fill="#252829"
       id="g9" />
    <path
       d="m 13190,8551 c 0,-6 25,-51 55,-100 161,-264 256,-509 241,-619 -9,-66 -65,-169 -129,-238 -58,-62 -251,-217 -372,-296 -62,-42 -81,-68 -49,-68 9,0 71,11 138,24 66,13 195,39 286,56 91,17 228,44 305,60 77,16 212,43 300,59 178,34 308,59 372,72 132,27 171,119 85,200 -20,20 -104,83 -187,140 -82,57 -215,150 -295,207 -80,56 -170,120 -200,142 -30,21 -120,85 -200,142 -299,213 -350,244 -350,219 z"
       fill="#252829"
       id="path11" />
    <path
       d="m 15210,6950 c -586,-29 -1394,-188 -2045,-402 -53.647,-14.3884 -92.63,-21.6105 -122,-67 -28,-42 -29,-80 -3,-114 34,-43 57,-42 238,17 428,140 931,261 1332,321 25,4 72,11 105,16 33,5 122,16 199,24 252,27 272,17 119,-59 -165,-81 -384,-209 -431,-251 -38.114,-26.6257 -44.316,-42.9098 -49,-86 -7,-64 15,-103 69,-122 217.111,-42.5585 454.976,-19.2439 678,-21 884,-7 1292,-41 1684,-141 162,-41 146,-38 146,-22 0,7 -36,35 -81,61 -293,174 -843,258 -1861,282 -201,5 -288,11 -288,18 0,6 51,37 113,69 315,160 512,266 537,290 34,33 44,78 26,122 -30,70 -80,79 -366,65 z"
       fill="#252829"
       id="path12"
       sodipodi:nodetypes="ccccccscccccccsccscccc" />
  </g>
  <path
     d="m 1770.5062,645.1013 c -74.4316,12.10039 -183.0538,73.86871 -285.063,161.66696 -48.8237,42.07 -109.8885,104.11971 -153.3655,155.61674 -47.6981,56.5624 -104.4011,137.044 -133.3858,189.2446 -15.1959,27.2962 -60.6427,118.4713 -60.6427,121.5668 0,0.2814 -2.814,6.613 -6.3316,14.0703 -13.3668,28.7032 -39.8188,92.5821 -53.3261,129.1647 -2.8142,7.5979 -7.1759,19.6983 -9.8493,26.7335 -12.804,34.7534 -36.4419,108.6221 -48.5423,151.677 -3.6583,13.2261 -13.0853,49.9494 -15.618,60.502 -1.5477,6.613 -4.0803,17.3065 -5.6281,23.9194 -4.7838,20.6833 -10.834,51.6377 -14.0702,72.4618 -0.84425,5.3466 -2.11062,13.3666 -2.81405,17.5877 -0.70353,4.221 -1.9699,12.804 -2.81404,18.9949 -0.84424,6.1909 -2.1106,15.0551 -2.81403,19.6982 -2.25132,15.0552 -4.22111,27.7184 -7.03515,47.8388 -3.79899,26.1707 -8.1607,50.7936 -11.39686,65.4266 -15.75869,69.3662 -41.08514,122.9739 -74.43158,158.0087 -59.58448,62.8199 -99.46234,51.6658 -115.51662,65.4266 -6.47229,5.4874 -10.97478,14.0702 -11.11547,20.6832 0,6.3317 9.00494,43.3364 14.07023,57.688 13.50742,38.1304 25.88923,51.9191 44.18053,49.5272 6.47231,-0.8442 11.53759,-4.3618 16.04006,-10.8341 7.7209,-11.8852 0.91034,-23.3053 -4.50247,-34.3313 -7.87933,-16.6029 -13.50743,-33.9093 -11.25619,-35.8792 0.70352,-0.5627 7.31652,-3.2361 14.63304,-5.7687 22.37168,-7.7386 43.61772,-19.1355 63.73815,-34.3313 28.84396,-21.6682 57.82869,-29.2662 126.91355,-33.0652 54.5498,-2.9753 69.9359,-15.9783 63.7804,-47.623 -4.9955,-19.6376 -49.7177,-24.4973 -74.1925,-25.6829 -14.9144,-0.7034 -27.43691,-1.5477 -27.85893,-1.9698 3.30593,-19.2824 13.44443,-23.4307 31.65793,-21.8089 69.6004,1.7174 57.5146,-43.0881 56.5625,-46.291 -4.9247,-15.3366 -10.412,-20.6833 -40.5223,-38.9746 -4.9246,-2.9547 -9.1457,-5.9094 -9.4271,-6.4723 -1.4071,-2.1105 2.5326,-23.7786 4.3618,-23.7786 1.7101,0 41.2822,26.0299 59.5172,26.0299 43.3037,-1.4578 44.1589,-33.9522 38.2898,-42.389 -1.1256,-1.5477 -7.8981,-8.5453 -15.9182,-13.8919 -26.1706,-17.4471 -46.9947,-36.1605 -57.5473,-51.7785 -9.8492,-14.9144 -11.2562,-25.045 -6.8944,-52.3413 5.0652,-32.5022 12.1004,-64.3009 21.8089,-99.8986 1.2662,-4.6432 2.814,-10.412 3.5175,-12.6632 5.4874,-20.5425 22.231,-67.2557 31.7988,-88.6425 1.6884,-3.9397 6.3316,-14.9144 10.4119,-24.6229 4.0804,-9.7085 9.9899,-22.9344 12.9447,-29.5474 3.0954,-6.6131 6.8944,-14.7738 8.4421,-18.2913 7.4572,-16.4623 45.8689,-92.1601 53.1855,-104.8233 1.407,-2.3919 4.5024,-8.02 7.035,-12.6632 10.9749,-20.1204 26.1707,-47.1353 31.236,-55.296 2.9547,-4.7839 5.3466,-9.005 5.3466,-9.2863 0,-0.8443 14.7739,-24.7636 30.6731,-50.0901 15.4773,-24.4822 48.1203,-73.3059 59.2358,-88.6425 4.7838,-6.613 13.226,-18.2913 18.7134,-26.0299 21.8089,-30.3917 55.8587,-73.5873 87.2354,-110.7327 8.0201,-9.427 18.2913,-21.6681 22.7938,-27.0148 4.6431,-5.4875 17.0249,-19.5577 27.437,-31.0953 10.5526,-11.6782 19.6982,-21.8088 20.5425,-22.653 0.7035,-0.9849 13.0853,-13.5075 27.4369,-28.1405 48.8237,-49.38651 88.6425,-86.95403 128.7427,-121.56679 8.5828,-7.31652 15.7586,-13.64812 16.1807,-14.07023 0.4221,-0.42212 4.7839,-4.22107 9.8492,-8.44214 4.9246,-4.22107 11.2562,-9.70847 14.0702,-12.10041 2.6734,-2.53263 12.5226,-10.97478 21.8088,-18.85411 56.9845,-48.40159 82.0296,-71.61747 89.346,-83.01437 6.7538,-10.41196 5.3467,-21.80885 -3.0954,-26.17063 -5.206,-2.67334 -18.5727,-3.65826 -28.5625,-1.96982 z"
     fill="#289b56"
     id="path3"
     sodipodi:nodetypes="ccccscccccccsscccccccccccccccccccccsccsccsccscccscscccccccccscccccc"
     style="stroke-width:0.140702" />
  <path
     d="m 1282.9725,98.75418 c -15.7585,10.27127 -62.331,71.33608 -91.7378,120.01909 -28.9847,47.97948 -58.9543,106.23024 -81.6074,158.29011 -2.9547,6.89441 -6.0502,13.92953 -6.7537,15.47725 -0.7035,1.54773 -4.221,9.70846 -7.8793,18.2913 -3.5176,8.44214 -7.7386,18.2913 -9.2864,21.80886 -6.1909,13.64813 -8.02,18.2913 -15.1958,35.8791 -4.0804,9.98986 -8.4422,20.82393 -9.8492,23.91938 -2.8141,6.33161 -9.8492,23.638 -14.9145,36.86401 -1.8291,4.92458 -5.0653,13.08532 -7.0351,18.2913 -9.2864,24.34151 -24.4823,68.66274 -32.7837,95.39618 -1.6884,5.34669 -5.628,17.44708 -8.5828,26.73344 -12.5225,39.11525 -26.02997,88.22036 -49.24582,180.09896 -6.89444,27.01486 -14.77373,58.11007 -17.58777,68.94414 -9.56781,36.4419 -22.93453,91.0344 -28.84402,117.4864 -5.3467,24.0601 -8.02004,36.0198 -9.84917,43.8992 -1.12561,4.7838 -12.66321,63.316 -15.89936,79.9188 -0.2814,1.9699 -1.54773,8.3015 -2.81405,14.0703 -1.12561,5.7688 -2.39194,12.1004 -2.81404,14.0702 -0.42211,1.9699 -3.93967,19.6984 -8.02003,39.3966 -4.08037,19.6984 -7.87933,38.4118 -8.44214,41.5073 -0.56282,3.0954 -1.96984,10.4119 -3.23616,16.1807 -1.12561,5.7689 -2.39194,12.1004 -2.81405,14.0703 -11.11547,58.6729 -29.82889,137.6069 -45.30614,191.3551 -28.56257,98.7731 -59.65778,165.0438 -113.68747,241.3045 -9.84917,13.9295 -19.97974,27.5777 -51.63776,69.6476 -28.56256,37.9897 -32.08013,43.0549 -44.18052,62.1905 -63.45675,100.7429 -63.45675,195.8576 -0.28141,264.2389 2.81405,2.9548 5.06528,6.4723 5.06528,7.598 0,4.9245 -20.68324,32.7836 -41.22578,55.5773 -10.41196,11.5377 -12.6632,15.8994 -12.6632,24.7636 0,11.9597 6.3316,20.2612 17.58778,23.3567 6.19091,1.5477 15.19585,0.5628 20.96466,-2.392 7.59792,-3.7989 36.30119,-37.9896 63.17533,-75.4164 15.47726,-21.5275 18.2913,-26.8742 18.2913,-35.0349 0,-11.8189 -3.65826,-17.5878 -18.0099,-28.2812 -21.38674,-15.8993 -36.16049,-44.4618 -39.81875,-76.542 l -1.40702,-13.5075 1.40702,-14.2109 c 4.50247,-42.4921 23.49729,-82.8737 64.72307,-136.6219 72.03959,-93.8485 95.95898,-129.1648 125.92858,-185.305 13.78883,-26.0299 38.83383,-84.14 46.57246,-108.2001 1.40703,-4.221 6.19091,-18.1506 10.55268,-30.9545 8.44214,-24.2008 23.21587,-68.9441 41.22577,-125.2251 26.87411,-83.7178 34.75351,-108.6221 38.97451,-122.411 2.53273,-8.1607 12.66323,-39.8188 22.51242,-70.3512 9.9899,-30.5324 19.83908,-60.9241 21.80888,-67.537 2.1105,-6.613 8.30142,-26.1707 14.07022,-43.6178 13.6481,-42.3513 23.7787,-74.8536 30.251,-97.0845 1.6885,-5.7688 4.9247,-16.3215 7.0352,-23.2159 5.628,-18.0099 12.3818,-40.5223 15.7586,-52.0599 4.9246,-17.30637 7.7386,-26.31132 12.1004,-40.80365 2.3919,-7.73864 5.7688,-19.13553 7.3165,-25.32642 4.0804,-15.61796 21.3868,-74.71293 29.5475,-101.30567 1.6885,-5.48739 3.5176,-11.819 4.2212,-14.07024 0.5628,-2.39194 3.3768,-11.53759 6.0502,-20.40183 2.6733,-8.86425 6.8944,-23.21589 9.427,-31.65802 2.3919,-8.58285 6.7538,-23.35659 9.8492,-33.06505 2.9548,-9.70846 8.02,-26.17063 11.2562,-36.58261 3.2361,-10.41197 8.3014,-27.29624 11.5375,-37.28611 3.0955,-10.13057 6.3316,-20.54253 7.0352,-23.21589 0.8442,-2.67334 1.9698,-6.47229 2.6733,-8.44213 0.5628,-1.96983 3.0955,-10.13057 5.4874,-18.2913 5.2059,-17.02498 11.819,-37.98963 15.4772,-49.24581 1.4071,-4.22108 3.9397,-12.2411 5.6281,-17.5878 5.9095,-19.41691 25.8893,-80.90383 38.6932,-119.59697 25.1857,-75.55714 34.472,-101.16496 62.6125,-173.06385 20.9646,-53.60758 24.7636,-72.74311 15.7587,-81.60735 -5.0734,-4.17633 -12.7216,-3.98258 -17.1658,-1.12562 z"
     fill="#289b56"
     id="path1"
     sodipodi:nodetypes="cccsccccccccccccccssscccccccscscccsccccccccccccccccccccsccscccccccccc"
     style="stroke-width:0.140702" />
  <g
     transform="matrix(0.20451819,0,0,-0.20451819,-30.877417,2526.5285)"
     fill="#000000"
     stroke="none"
     id="g5"
     style="fill:#252829;fill-opacity:1">
    <path
       d="m 7735.4647,4948.4346 c -23.9195,-9.8491 -50.6529,-30.9545 -59.095,-46.4317 -14.0702,-26.7335 -39.3966,-531.8548 -45.0247,-886.4247 -2.8141,-154.7725 -1.4071,-160.4006 33.7685,-196.9832 36.5826,-35.1756 45.0248,-37.9897 251.8572,-47.8388 302.51,-14.0703 398.1875,8.4422 478.3878,118.19 112.5619,149.1444 81.6073,357.3839 -63.316,447.4333 l -39.3966,25.3265 43.6177,30.9545 c 66.1301,46.4317 98.4916,123.818 98.4916,232.1587 0,194.1693 -119.597,306.7311 -346.1277,323.6154 -271.5555,18.2913 -309.5451,19.6983 -353.1628,0 z m 422.1069,-243.415 c 45.0247,-42.2107 57.6879,-91.4565 37.9897,-151.9585 -22.5124,-67.5371 -74.5723,-90.0495 -204.0184,-90.0495 h -105.5268 v 130.8532 c 0,73.1652 4.2211,136.4812 11.2562,142.1093 5.6282,5.6281 59.095,8.4421 118.19,5.6281 90.0494,-4.221 113.9688,-9.8492 142.1093,-36.5826 z m -43.6177,-453.0615 c 77.3863,-22.5124 113.9689,-75.9792 105.5268,-154.7726 -5.6281,-45.0247 -18.2913,-71.7581 -45.0248,-94.2705 -32.3616,-28.1404 -52.0598,-32.3615 -167.4358,-32.3615 -71.7581,0 -133.6672,2.814 -136.4812,5.6281 -2.8141,2.814 -4.221,70.3511 -1.407,147.7374 l 4.221,142.1093 h 94.2705 c 52.0599,0 118.1901,-7.0351 146.3305,-14.0702 z"
       id="path1-3"
       style="fill:#252829;fill-opacity:1;stroke-width:1.40702" />
    <path
       d="m 6484.6211,4738.7881 c -70.3512,-30.9545 -99.8988,-80.2003 -109.7478,-187.1341 -19.6984,-199.7972 -50.6529,-720.3958 -50.6529,-852.656 0,-128.0391 2.814,-140.7023 35.1756,-171.6569 43.6176,-45.0247 105.5267,-45.0247 153.3655,-2.814 32.3616,28.1405 36.5826,45.0247 45.0248,168.8428 l 9.8491,136.4812 177.2849,56.281 c 98.4917,30.9545 187.1341,56.2809 198.3903,56.2809 11.2562,0 39.3966,-29.5475 61.909,-64.7231 77.3863,-122.4109 104.1198,-146.3304 164.6217,-146.3304 73.1652,0 111.1549,37.9897 111.1549,111.1549 0,46.4318 -21.1054,84.4213 -150.5515,265.9274 -236.38,330.6504 -455.8756,607.8339 -499.4932,630.3463 -46.4318,23.9194 -90.0496,23.9194 -146.3304,0 z m 230.7517,-440.3982 c 64.7231,-88.6424 113.969,-164.6218 111.1549,-167.4358 -9.8492,-11.2562 -249.0432,-80.2003 -256.0782,-74.5722 -8.4422,9.8492 9.8491,406.6297 19.6983,406.6297 4.2211,-1.407 60.502,-74.5722 125.225,-164.6217 z"
       id="path2-6"
       style="fill:#252829;fill-opacity:1;stroke-width:1.40702" />
    <path
       d="m 9269.12,4499.5943 c -156.1796,-50.6529 -285.6258,-171.6569 -367.2331,-343.3138 -50.6528,-104.1197 -52.0599,-113.9689 -52.0599,-263.1133 0,-140.7023 2.8141,-161.8077 39.3967,-234.9729 50.6529,-102.7127 167.4357,-211.0534 274.3695,-251.8571 158.9936,-61.9091 368.64,-35.1756 409.4438,52.0598 22.5124,52.0599 19.6983,73.1652 -19.6984,112.5619 -33.7685,33.7686 -42.2107,35.1755 -137.8882,26.7334 -171.6569,-16.8842 -282.8118,53.4669 -319.3944,202.6114 -40.8036,174.4709 85.8285,412.2578 250.4502,467.1317 130.8531,43.6177 271.5555,-19.6984 332.0574,-146.3304 19.6984,-42.2108 46.4318,-80.2004 59.0951,-85.8284 92.8635,-35.1757 168.8428,26.7334 154.7725,129.446 -11.2562,80.2004 -40.8036,133.6673 -115.3759,209.6466 -91.4565,91.4565 -196.9832,135.0741 -336.2786,140.7022 -68.9441,2.8142 -135.0741,-4.221 -171.6567,-15.4771 z"
       id="path3-7"
       style="fill:#252829;fill-opacity:1;stroke-width:1.40702" />
  </g>
</svg>
